<?xml version="1.0" standalone="no"?>
<!DOCTYPE svg PUBLIC "-//W3C//DTD SVG 20010904//EN"
 "http://www.w3.org/TR/2001/REC-SVG-20010904/DTD/svg10.dtd">
<svg version="1.0" xmlns="http://www.w3.org/2000/svg"
 width="133.000000pt" height="133.000000pt" viewBox="0 0 133.000000 133.000000"
 preserveAspectRatio="xMidYMid meet">
<metadata>
Created by potrace 1.14, written by Peter Selinger 2001-2017
</metadata>
<g transform="translate(0.000000,133.000000) scale(0.100000,-0.100000)"
fill="#000000" stroke="none">
<path d="M0 665 l0 -665 665 0 665 0 0 665 0 665 -665 0 -665 0 0 -665z m708
315 c23 -10 42 -15 42 -10 0 6 25 10 55 10 l55 0 0 -95 0 -95 -50 0 c-46 0
-51 3 -61 27 -23 61 -83 91 -140 71 -79 -27 -57 -114 34 -134 159 -34 228 -81
248 -169 21 -97 -15 -186 -94 -227 -59 -31 -158 -31 -210 -1 -32 19 -39 20
-43 8 -4 -10 -21 -15 -55 -15 l-49 0 0 110 0 110 48 0 48 0 21 -49 c14 -34 30
-54 53 -66 71 -37 144 -14 155 49 13 64 -6 77 -174 126 -88 26 -133 64 -151
130 -42 157 117 288 268 220z"/>
</g>
</svg>
